<?xml version="1.0" standalone="no"?>
<!DOCTYPE svg PUBLIC "-//W3C//DTD SVG 20010904//EN"
 "http://www.w3.org/TR/2001/REC-SVG-20010904/DTD/svg10.dtd">
<svg version="1.0" xmlns="http://www.w3.org/2000/svg"
 width="512.000000pt" height="512.000000pt" viewBox="0 0 512.000000 512.000000"
 preserveAspectRatio="xMidYMid meet">
<metadata>
Created by potrace 1.14, written by Peter Selinger 2001-2017
</metadata>
<g transform="translate(0.000000,512.000000) scale(0.100000,-0.100000)"
fill="#000000" stroke="none">
<path d="M441 5094 c-12 -15 -21 -41 -22 -58 0 -17 -1 -298 -1 -625 l-1 -594
-38 -60 c-110 -170 -191 -403 -233 -667 -19 -121 -24 -325 -12 -545 8 -154 14
-270 21 -423 5 -121 18 -160 57 -179 12 -6 141 -50 286 -98 184 -61 262 -91
262 -101 0 -8 -18 -88 -41 -177 -22 -89 -42 -169 -44 -177 -2 -8 -21 -89 -43
-180 -54 -221 -53 -212 -30 -260 21 -41 50 -56 103 -53 11 1 155 40 319 87
164 48 301 84 304 81 3 -3 7 -11 8 -18 4 -27 36 -194 45 -237 5 -25 12 -59 14
-75 3 -25 35 -199 51 -280 3 -11 7 -36 10 -55 3 -19 7 -42 9 -50 2 -8 7 -28 9
-45 50 -292 53 -299 143 -303 65 -3 83 4 428 168 70 33 129 60 130 60 1 0 54
24 116 53 63 30 151 71 196 92 l83 38 443 -207 442 -207 65 3 c59 3 65 5 81
33 13 23 108 485 165 805 22 120 38 190 45 190 8 0 180 -44 439 -112 85 -22
169 -42 185 -43 37 -3 78 17 99 47 16 23 22 89 9 102 -4 3 -8 12 -9 19 -7 30
-14 62 -29 120 -9 34 -18 70 -20 79 -2 10 -20 82 -39 160 -20 79 -38 152 -41
163 -2 11 -13 56 -24 100 -11 44 -18 81 -17 82 2 2 276 99 441 155 129 44 145
61 150 162 14 265 17 315 20 346 16 160 22 481 10 556 -2 17 -7 57 -10 90 -4
32 -10 75 -15 94 -5 19 -12 47 -15 63 -3 15 -7 39 -10 55 -24 115 -145 396
-218 501 l-32 46 0 622 c0 615 0 622 -21 650 -18 24 -29 28 -81 31 l-61 3
-296 -183 c-163 -101 -304 -187 -314 -193 -63 -36 -200 -120 -212 -130 -8 -7
-35 -24 -60 -38 l-45 -26 -75 25 c-74 24 -206 61 -249 69 -13 2 -30 6 -39 9
-29 9 -163 31 -307 50 -127 18 -364 23 -535 12 -178 -12 -220 -16 -298 -31
-10 -1 -51 -8 -92 -15 -109 -17 -271 -56 -377 -90 l-92 -30 -475 285 -474 285
-60 0 c-53 0 -63 -3 -81 -26z m367 -359 c46 -28 96 -58 112 -67 16 -10 143
-86 282 -169 139 -84 267 -158 285 -165 29 -12 41 -11 140 22 128 43 107 37
268 74 134 30 154 34 240 46 28 3 59 8 69 10 134 25 625 25 756 -1 14 -3 43
-7 65 -10 48 -7 61 -9 100 -18 17 -4 42 -9 56 -11 54 -9 260 -67 335 -94 44
-16 90 -28 104 -25 14 2 66 28 115 59 50 30 99 60 110 67 11 7 38 24 60 38 22
14 47 29 55 32 8 4 34 20 57 35 54 34 410 253 437 269 l21 11 -1 -542 -2 -542
54 -85 c125 -195 193 -378 239 -644 4 -25 18 -197 18 -230 0 -9 -12 -224 -18
-335 -1 -19 -5 -91 -9 -160 -7 -117 -14 -192 -19 -195 -1 -1 -123 -44 -272
-95 -148 -51 -280 -99 -293 -107 -34 -21 -50 -66 -41 -116 8 -44 10 -54 103
-426 31 -123 55 -225 53 -227 -3 -4 -61 11 -349 85 -108 28 -210 51 -227 51
-20 0 -41 -10 -60 -28 -28 -25 -33 -41 -70 -232 -35 -181 -93 -480 -106 -550
-3 -14 -12 -63 -20 -109 -8 -47 -19 -89 -23 -93 -5 -5 -68 19 -147 56 -76 36
-139 66 -141 66 -1 0 -64 29 -139 65 -76 36 -138 65 -140 65 -1 0 -56 25 -121
56 -70 34 -138 59 -164 61 -46 5 -65 -2 -382 -151 -43 -20 -113 -52 -155 -72
-43 -20 -109 -51 -148 -69 -38 -18 -96 -44 -128 -59 -33 -15 -61 -25 -63 -23
-3 3 -7 17 -10 33 -2 16 -13 74 -24 129 -10 55 -22 116 -25 135 -5 31 -41 221
-51 275 -2 11 -6 34 -9 50 -3 17 -8 41 -10 55 -9 44 -14 73 -35 189 -11 62
-27 125 -34 140 -16 31 -54 54 -88 54 -13 0 -137 -33 -276 -72 -248 -71 -302
-85 -302 -78 0 2 9 39 20 83 11 43 22 88 24 99 3 11 30 123 61 249 51 206 56
233 46 268 -7 21 -22 43 -34 50 -12 7 -150 55 -306 108 l-285 95 -2 60 c-5
141 -15 376 -19 445 -6 93 -6 286 -1 320 3 14 7 56 11 95 4 38 9 73 11 76 2 4
6 24 9 45 24 163 106 367 215 536 l40 61 0 544 0 543 48 -27 c26 -16 84 -51
130 -78z"/>
<path d="M1492 3613 c-27 -5 -75 -63 -78 -95 -3 -35 22 -81 59 -104 17 -12 77
-51 132 -86 55 -36 143 -93 195 -126 52 -34 99 -63 104 -65 8 -3 11 -884 5
-1432 -2 -213 0 -244 15 -274 74 -143 332 -231 656 -225 287 5 514 86 591 210
l22 37 1 840 1 841 105 67 c58 37 163 105 234 150 140 90 164 119 150 183 -7
32 -48 75 -74 77 -8 0 -23 2 -32 4 -18 3 -100 -44 -273 -157 -55 -36 -146 -95
-202 -131 -56 -36 -107 -76 -114 -88 -9 -17 -12 -205 -12 -748 l0 -726 -111
29 c-100 26 -128 29 -286 30 -198 1 -278 -7 -385 -40 -27 -9 -54 -17 -60 -19
-7 -1 -10 245 -10 726 0 714 -1 728 -20 755 -11 15 -86 68 -165 120 -80 51
-197 126 -260 167 -116 74 -146 87 -188 80z m1236 -2007 c17 -3 45 -8 61 -11
50 -9 156 -44 176 -59 20 -15 20 -15 0 -30 -89 -69 -382 -107 -590 -77 -129
19 -262 65 -247 86 24 35 155 79 274 94 69 8 274 6 326 -3z"/>
</g>
</svg>
